<?xml version="1.0" standalone="no"?>
<!DOCTYPE svg PUBLIC "-//W3C//DTD SVG 20010904//EN"
 "http://www.w3.org/TR/2001/REC-SVG-20010904/DTD/svg10.dtd">
<svg version="1.0" xmlns="http://www.w3.org/2000/svg"
 width="3375.000000pt" height="3375.000000pt" viewBox="0 0 3375.000000 3375.000000"
 preserveAspectRatio="xMidYMid meet">
<metadata>
Created by potrace 1.16, written by Peter Selinger 2001-2019
</metadata>
<g transform="translate(0.000000,3375.000000) scale(0.100000,-0.100000)"
fill="#000000" stroke="none">
<path d="M19376 25622 c-10 -5 -30 -26 -45 -48 -21 -31 -47 -49 -122 -85 -111
-54 -121 -68 -117 -169 l3 -65 -29 -3 c-16 -2 -40 2 -53 9 -21 12 -27 8 -79
-49 -49 -55 -60 -62 -93 -62 -30 0 -45 7 -74 36 l-36 37 -52 -22 c-58 -26
-111 -22 -167 10 -18 10 -41 19 -50 19 -10 0 -35 9 -56 19 -40 21 -72 20 -161
-4 -27 -8 -75 -16 -106 -18 -38 -2 -86 -16 -143 -42 -85 -38 -86 -39 -86 -74
0 -20 7 -49 16 -66 12 -23 14 -56 11 -160 -5 -160 7 -315 27 -353 8 -16 14
-43 14 -60 -2 -49 16 -62 83 -61 39 1 67 -4 83 -15 41 -26 52 -24 182 35 57
27 79 24 122 -15 34 -31 41 -33 77 -26 22 4 60 15 85 24 25 8 62 16 83 16 21
0 52 7 69 16 32 17 79 15 133 -4 120 -42 197 -61 238 -61 56 2 87 -20 87 -62
0 -16 7 -34 16 -41 70 -56 77 -67 72 -118 -3 -30 -15 -65 -31 -89 -41 -61
-215 -171 -271 -171 -15 0 -46 -18 -78 -46 -50 -43 -55 -45 -98 -39 -25 4 -50
11 -55 15 -6 5 -33 11 -60 14 -28 3 -62 8 -76 11 -15 4 -52 -2 -89 -14 -35
-12 -86 -21 -114 -21 -48 0 -53 -2 -102 -55 -58 -61 -69 -62 -108 -10 -27 34
-34 69 -16 80 15 9 0 35 -32 51 -37 19 -91 11 -119 -17 -24 -24 -26 -126 -5
-197 8 -26 24 -83 35 -127 12 -44 28 -100 36 -125 22 -72 28 -136 14 -162 -16
-31 -39 -47 -66 -48 -34 0 -29 -39 13 -101 42 -62 49 -69 86 -69 15 0 30 -5
33 -11 5 -7 33 -8 83 -4 55 5 96 2 145 -9 76 -18 224 -20 302 -5 28 5 74 12
103 16 44 5 59 12 96 48 23 24 57 50 74 59 30 15 31 15 51 -10 12 -15 21 -39
21 -55 0 -46 9 -60 30 -46 15 9 30 7 69 -7 52 -18 61 -17 98 17 21 19 24 19
47 3 14 -9 38 -16 54 -16 17 0 37 -9 48 -21 17 -19 25 -21 94 -14 133 13 170
1 170 -56 0 -23 -9 -34 -40 -54 -22 -14 -40 -31 -40 -39 0 -28 80 -136 119
-161 23 -14 41 -30 41 -37 0 -6 8 -20 17 -31 17 -18 17 -19 -2 -33 -23 -17
-84 -18 -122 -2 -15 6 -47 30 -70 51 -36 34 -44 38 -58 27 -17 -14 -20 -66 -5
-105 9 -23 14 -26 39 -20 37 8 190 -59 243 -107 33 -30 37 -38 32 -69 -5 -30
-1 -39 36 -75 32 -32 54 -44 98 -54 31 -7 70 -21 85 -32 35 -25 57 -17 57 19
0 41 20 104 42 136 22 31 50 35 76 10 10 -10 36 -28 58 -40 52 -28 79 -74 67
-111 -20 -59 5 -79 78 -63 24 6 61 11 81 11 32 0 45 7 80 46 56 60 93 76 142
63 47 -13 187 3 270 31 33 11 67 20 76 20 28 0 46 39 59 131 14 93 7 217 -14
259 -16 31 -83 101 -158 165 -50 42 -60 57 -67 94 -14 78 23 114 77 76 20 -14
24 -13 55 13 48 42 71 52 121 52 46 0 69 16 81 55 10 34 65 57 148 62 67 5 80
3 106 -16 38 -27 58 -27 73 2 7 12 21 28 31 36 29 20 10 31 -68 42 -38 5 -93
13 -122 17 -49 8 -56 7 -95 -19 -23 -15 -60 -31 -82 -35 -22 -4 -55 -13 -72
-21 -18 -7 -74 -16 -124 -20 -87 -6 -93 -8 -126 -41 -45 -44 -63 -88 -63 -151
0 -41 10 -67 55 -152 31 -57 66 -115 79 -129 49 -52 96 -130 96 -159 0 -30
-33 -61 -66 -61 -9 0 -30 -10 -47 -22 -31 -22 -39 -23 -197 -20 -270 6 -428 6
-560 1 -175 -7 -195 4 -365 196 -27 31 -53 63 -57 70 -4 7 3 50 17 95 33 109
40 168 24 205 -7 17 -15 53 -18 80 l-6 50 -45 5 c-25 3 -58 16 -75 28 -90 67
-239 86 -324 42 -65 -33 -137 -45 -182 -30 -34 11 -44 11 -78 -4 -41 -19 -63
-14 -91 18 -16 20 -39 20 -77 1 -38 -19 -210 -23 -278 -6 -27 7 -120 16 -205
20 -85 5 -156 9 -157 10 -1 0 -9 14 -18 31 -13 25 -13 39 -4 87 7 32 14 110
16 175 5 143 9 146 98 83 31 -21 58 -22 270 -8 76 5 129 13 145 23 16 10 65
17 140 21 132 7 189 24 238 74 25 26 44 35 85 40 62 8 112 36 129 73 7 14 36
39 63 55 56 32 162 131 171 160 3 11 -4 38 -17 62 -21 40 -22 48 -11 90 7 25
12 57 12 70 0 47 -47 120 -127 195 -81 78 -151 120 -197 120 -15 0 -53 16 -84
37 -132 84 -206 102 -345 83 -88 -12 -93 -12 -127 9 -42 25 -93 27 -173 6 -73
-19 -101 -19 -138 0 -24 13 -42 14 -98 7 -37 -6 -80 -8 -94 -5 -25 5 -27 9
-27 54 0 26 4 59 10 73 l10 26 177 -1 c98 0 203 -5 233 -10 30 -6 89 -13 131
-16 77 -5 77 -5 140 36 35 23 67 41 72 41 5 0 6 7 3 16 -4 9 1 28 9 41 28 42
45 13 45 -76 l1 -76 24 30 c47 58 55 65 82 71 17 5 45 1 74 -9 63 -23 253 -35
274 -17 22 19 19 33 -26 106 -56 91 -89 170 -89 210 0 50 29 64 152 73 106 8
140 18 157 49 9 15 13 15 43 3 18 -7 71 -18 118 -23 118 -12 125 -14 166 -51
30 -26 46 -32 86 -33 26 -1 52 -2 56 -3 5 0 18 -18 30 -40 19 -33 22 -54 22
-152 0 -105 2 -115 21 -127 35 -22 213 -27 303 -8 43 9 95 16 115 16 20 0 45
7 55 15 29 22 64 18 97 -10 16 -13 46 -27 67 -30 20 -3 52 -10 70 -15 23 -6
62 -4 119 6 63 11 93 12 116 5 16 -6 77 -11 134 -11 115 0 164 -14 184 -52 6
-12 26 -36 44 -53 26 -24 33 -41 38 -84 6 -47 13 -61 51 -100 25 -25 61 -77
81 -116 41 -81 96 -128 185 -158 65 -21 160 -19 285 8 106 22 312 31 373 15
26 -6 88 -29 139 -52 89 -38 94 -39 144 -29 50 11 54 10 79 -14 25 -24 151
-84 178 -85 7 0 17 11 23 24 9 19 6 40 -15 104 -25 73 -31 83 -69 105 -23 14
-53 36 -66 50 -29 32 -106 62 -195 77 -38 6 -77 15 -86 20 -21 11 -178 38
-310 54 -139 16 -192 11 -224 -20 -22 -23 -32 -25 -118 -25 l-93 -1 -44 49
c-69 75 -81 100 -81 168 0 53 -4 67 -35 110 -19 28 -51 83 -71 123 -20 39 -40
72 -45 72 -5 0 -9 6 -9 14 0 8 -19 29 -42 48 l-43 33 -168 -2 c-164 -3 -250
-16 -298 -46 -12 -7 -37 -7 -86 2 -64 13 -139 11 -210 -4 -25 -6 -43 -1 -75
17 -50 29 -86 25 -139 -13 -27 -19 -46 -24 -98 -24 l-64 0 -12 35 c-8 23 -24
41 -51 56 -29 16 -46 36 -67 80 -16 33 -37 68 -47 79 -10 11 -27 38 -38 60
-46 90 -142 152 -243 156 -49 2 -63 -2 -105 -29 -73 -49 -171 -39 -195 20 -13
32 -23 35 -134 42 -44 3 -91 7 -105 10 -14 3 -33 2 -44 -2z"/>
<path d="M15520 24479 c-19 -5 -73 -14 -119 -19 -46 -6 -91 -15 -101 -20 -10
-6 -65 -15 -122 -21 -110 -11 -138 -21 -217 -72 -28 -19 -68 -39 -89 -46 -33
-11 -42 -20 -53 -53 -17 -51 -95 -143 -140 -164 -53 -24 -63 -47 -69 -159 l-5
-99 -40 -28 c-34 -23 -47 -27 -82 -22 -35 5 -51 1 -98 -26 -53 -30 -61 -32
-118 -26 -34 4 -116 8 -182 10 -98 1 -127 -1 -157 -16 -52 -25 -110 -23 -156
6 -36 22 -42 23 -223 20 -145 -2 -195 -7 -227 -20 -23 -9 -42 -19 -42 -23 0
-3 -20 -28 -45 -56 -33 -38 -46 -61 -50 -95 -9 -64 -22 -94 -56 -126 -23 -22
-29 -36 -29 -69 0 -26 -8 -53 -23 -75 -24 -36 -79 -171 -91 -225 -3 -16 -25
-67 -48 -112 -57 -115 -66 -117 -221 -59 -37 14 -77 32 -89 41 -32 22 -99 19
-184 -10 -41 -14 -90 -25 -109 -25 -31 0 -46 -10 -109 -73 -40 -41 -80 -77
-90 -80 -21 -8 -71 16 -79 38 -10 23 0 39 38 59 76 41 24 62 -118 48 -107 -12
-132 -27 -243 -150 -134 -147 -190 -202 -208 -202 -10 0 -30 14 -44 30 -15 17
-29 30 -33 30 -6 0 -28 -32 -144 -209 l-50 -76 -3 -121 c-3 -96 0 -128 12
-152 9 -17 16 -40 16 -51 0 -54 77 -132 178 -179 54 -25 66 -26 213 -27 l157
0 38 32 c22 18 59 45 83 60 51 31 65 26 99 -35 l23 -40 62 -1 c43 0 75 6 106
21 43 21 44 21 77 3 32 -17 34 -21 34 -70 0 -32 9 -75 25 -113 44 -108 29
-164 -46 -176 l-41 -7 7 -57 c5 -31 8 -113 8 -182 1 -169 -27 -226 -84 -169
-30 30 -49 82 -49 133 0 24 -3 51 -6 60 -10 27 -64 -6 -90 -56 -13 -24 -12
-31 6 -60 15 -24 20 -50 20 -98 -1 -112 -25 -192 -91 -290 -20 -30 -39 -71
-43 -91 -3 -21 -15 -48 -25 -60 -30 -39 -73 -159 -82 -229 -17 -126 -33 -169
-94 -257 -25 -35 -45 -66 -45 -69 0 -2 -11 -21 -24 -42 -12 -20 -38 -71 -56
-112 -18 -41 -43 -90 -57 -108 -30 -40 -58 -102 -77 -173 -65 -237 -79 -284
-93 -306 -9 -13 -20 -46 -24 -72 -8 -49 -25 -93 -59 -148 -28 -46 -19 -59 38
-55 81 5 91 10 127 67 36 56 120 258 157 375 11 36 24 69 29 75 5 5 9 15 9 23
0 7 20 55 44 106 24 51 47 103 51 117 4 13 12 29 17 36 17 21 48 117 48 148 0
33 26 107 52 145 9 14 29 50 45 81 58 116 116 210 140 229 17 13 41 20 71 20
33 0 54 7 78 25 39 30 73 31 176 9 43 -9 121 -16 188 -16 l115 0 134 -64 c74
-35 141 -64 150 -64 9 0 34 12 54 26 44 30 70 27 115 -11 17 -14 43 -25 59
-25 69 0 394 52 448 72 67 24 85 33 85 44 0 15 48 56 107 92 28 17 83 62 120
99 38 37 80 75 93 84 24 16 24 17 11 80 -7 35 -24 106 -38 157 -24 84 -25 100
-15 153 13 70 78 193 131 249 23 25 52 42 81 50 25 6 92 37 150 69 58 31 128
65 155 75 28 11 55 23 62 28 7 5 93 7 210 3 159 -5 207 -10 243 -25 25 -10 72
-24 105 -30 184 -38 196 -45 250 -153 31 -62 35 -78 35 -150 0 -112 -14 -150
-78 -211 -29 -28 -74 -78 -100 -111 -25 -33 -69 -87 -98 -120 -44 -51 -50 -63
-40 -77 7 -9 25 -20 42 -23 82 -19 92 -25 118 -78 49 -100 163 -186 275 -207
30 -5 130 -10 223 -10 93 0 235 -6 316 -12 81 -7 210 -13 287 -12 136 0 142 1
206 32 37 18 77 32 89 32 12 0 35 15 51 33 67 73 72 77 105 77 24 0 48 -12 88
-45 31 -25 65 -45 76 -45 35 0 45 -39 32 -133 -7 -45 -17 -208 -22 -362 -11
-283 -18 -338 -48 -354 -10 -5 -63 -5 -127 1 -122 11 -314 5 -360 -11 -16 -5
-62 -15 -102 -21 -64 -10 -76 -16 -116 -56 -29 -29 -54 -44 -70 -44 -14 0 -29
-4 -32 -10 -3 -5 -29 -10 -56 -10 -50 0 -101 -19 -116 -43 -11 -18 -76 -47
-106 -47 -17 0 -46 -18 -84 -53 -76 -69 -127 -108 -188 -142 -62 -35 -161
-128 -184 -175 -10 -19 -21 -50 -25 -69 -7 -38 -78 -185 -132 -276 -135 -223
-162 -630 -64 -960 30 -99 176 -353 248 -429 30 -33 51 -46 70 -46 43 0 91
-36 111 -83 10 -24 34 -55 52 -71 34 -27 226 -147 264 -165 45 -20 204 -51
261 -51 49 0 69 -5 98 -25 37 -25 39 -25 260 -25 216 0 224 -1 257 -23 l34
-23 5 -134 c3 -86 10 -144 18 -159 16 -27 13 -53 -18 -166 -13 -51 -19 -96
-16 -125 25 -236 26 -268 11 -485 -9 -121 -18 -290 -21 -375 -7 -174 -15 -216
-47 -226 -12 -4 -204 -7 -426 -6 -341 1 -432 4 -592 22 l-188 22 -65 -32 -64
-32 -96 17 c-75 12 -129 14 -253 9 -87 -4 -164 -11 -170 -17 -26 -19 -14 -46
30 -68 23 -12 63 -39 88 -60 34 -28 56 -39 80 -39 38 0 220 -23 319 -40 49 -8
85 -8 145 1 99 14 718 -3 895 -26 63 -8 170 -15 237 -15 l123 0 6 39 c8 48 49
95 75 87 48 -15 55 -16 66 -8 9 5 14 62 18 182 9 256 23 452 40 560 10 64 12
104 6 125 -5 16 -8 82 -7 145 1 100 4 121 26 165 l25 50 3 355 c2 195 4 392 5
437 1 45 -1 85 -5 88 -15 15 -275 36 -378 31 -58 -3 -203 -9 -323 -15 l-217
-10 -83 34 c-204 82 -440 195 -473 226 -12 11 -32 44 -44 72 -16 37 -51 82
-120 152 -61 62 -101 112 -106 130 -4 17 -22 64 -39 105 -46 106 -49 130 -21
182 21 39 23 61 29 221 4 151 3 186 -11 223 -15 41 -15 48 2 111 9 38 27 88
39 112 23 47 129 156 175 180 15 8 71 53 125 100 105 92 173 147 197 158 25
11 46 36 65 73 54 105 187 209 269 210 21 0 71 -14 128 -37 23 -10 51 -13 77
-9 23 3 59 9 81 12 32 5 40 3 40 -9 0 -23 -28 -47 -61 -54 -16 -3 -32 -10 -35
-14 -3 -5 -22 -9 -42 -9 -35 0 -168 -46 -238 -83 -18 -9 -60 -46 -95 -83 -35
-36 -80 -74 -99 -84 -19 -10 -46 -30 -59 -44 -17 -18 -35 -26 -59 -26 -50 0
-134 -91 -162 -177 -12 -34 -27 -67 -35 -73 -14 -12 -51 -85 -85 -170 -10 -25
-21 -75 -25 -110 -4 -36 -12 -74 -18 -85 -11 -21 -28 -360 -19 -385 3 -8 29
-55 58 -103 30 -52 59 -116 69 -155 49 -192 46 -186 92 -193 27 -3 69 -24 126
-62 123 -83 219 -121 364 -146 67 -11 139 -27 159 -36 61 -25 142 -20 217 15
96 46 150 49 251 15 91 -30 103 -30 208 11 45 17 48 17 86 0 31 -14 59 -17
123 -15 l83 4 34 -110 c35 -113 62 -185 69 -185 10 0 30 29 55 80 26 51 28 66
33 230 4 96 2 195 -2 220 l-9 45 -59 -2 c-39 -1 -83 -12 -123 -29 -53 -23 -70
-25 -110 -18 -109 19 -267 -4 -337 -50 -20 -13 -53 -16 -174 -16 -82 0 -161 4
-174 9 -14 5 -60 11 -103 12 -52 1 -103 10 -149 26 -57 19 -75 21 -102 12 -51
-17 -92 3 -211 101 -177 145 -167 133 -182 233 -10 66 -11 111 -3 180 9 88 8
94 -14 133 -29 51 -29 75 0 111 27 32 36 52 47 103 32 142 79 240 168 348 15
19 34 48 42 65 21 44 102 102 169 121 31 9 83 26 116 38 209 73 305 96 463
108 103 9 127 8 152 -5 16 -8 44 -15 63 -15 19 0 52 -6 73 -14 43 -15 130 -12
177 6 21 8 59 8 143 -2 107 -12 115 -12 134 5 14 13 20 31 20 60 0 23 6 64 14
91 21 75 34 468 26 809 -4 165 10 506 22 537 10 26 11 27 81 21 40 -2 106 -9
147 -15 41 -5 246 -13 455 -18 209 -5 441 -15 515 -21 261 -24 350 -12 433 61
55 49 81 103 95 199 12 85 1 130 -40 152 -53 28 -108 82 -119 118 -17 52 -21
299 -7 336 49 123 191 239 353 288 171 53 238 55 476 18 222 -34 291 -58 471
-159 20 -11 62 -25 95 -31 66 -12 90 -34 127 -116 13 -27 31 -56 40 -64 32
-27 47 -73 53 -161 4 -67 2 -104 -11 -148 -9 -32 -17 -97 -18 -144 -2 -79 0
-89 32 -144 31 -55 86 -113 134 -141 24 -14 124 -16 206 -4 35 6 98 4 170 -5
164 -19 781 -18 915 1 55 8 138 15 185 15 72 1 91 4 124 24 21 14 46 22 55 19
33 -12 84 -70 108 -123 26 -58 63 -166 63 -187 0 -17 145 -317 170 -352 13
-19 20 -45 20 -73 0 -27 11 -66 31 -108 30 -63 179 -439 194 -490 15 -52 58
-146 73 -164 22 -24 114 -83 177 -112 41 -20 67 -24 142 -24 109 0 135 8 190
62 l42 41 80 -7 c68 -5 87 -4 118 12 65 33 139 45 235 39 48 -3 103 -10 120
-16 18 -5 51 -14 73 -20 181 -46 562 -192 580 -221 3 -5 30 -26 60 -46 30 -20
55 -39 55 -43 0 -4 10 -12 23 -18 32 -15 191 -167 259 -248 32 -38 67 -79 77
-90 37 -41 123 -197 157 -287 32 -83 37 -108 44 -233 5 -77 12 -154 15 -171 9
-43 -13 -83 -76 -136 -28 -24 -70 -60 -93 -81 -22 -21 -78 -56 -123 -77 -46
-22 -83 -45 -83 -52 0 -25 16 -37 60 -47 25 -6 64 -17 88 -25 48 -17 71 -12
118 26 16 13 47 35 69 49 95 62 173 164 210 276 31 97 19 319 -24 438 -12 33
-31 87 -42 119 -11 33 -35 89 -53 125 -37 75 -167 269 -235 351 -64 78 -300
321 -335 345 -16 11 -41 28 -55 37 -14 10 -43 18 -64 18 -44 0 -68 11 -114 51
-18 15 -50 31 -70 35 -21 4 -89 26 -152 50 -63 24 -171 60 -240 80 -69 20
-136 43 -149 52 -19 12 -30 13 -61 3 -21 -6 -82 -11 -135 -11 -79 0 -104 4
-138 21 -54 28 -138 22 -206 -14 -149 -80 -154 -82 -232 -82 -64 0 -81 4 -116
27 -35 23 -46 39 -77 115 -41 100 -137 323 -172 398 -13 28 -39 85 -59 128
-19 42 -39 77 -43 77 -5 0 -23 26 -40 58 -31 57 -41 80 -89 222 -44 132 -93
253 -127 315 -27 49 -42 64 -83 84 -27 13 -74 26 -104 28 -33 2 -82 16 -122
35 -66 30 -70 31 -135 20 -38 -7 -102 -26 -143 -42 -62 -26 -83 -30 -122 -25
-25 4 -55 2 -65 -3 -10 -5 -46 -13 -80 -17 -60 -7 -62 -6 -100 28 -21 19 -49
38 -62 42 -34 10 -198 14 -234 5 -18 -4 -44 -11 -59 -14 -14 -3 -40 -17 -56
-31 -46 -38 -211 -58 -296 -34 -42 12 -117 75 -151 129 -30 48 -34 86 -23 212
9 105 9 109 -17 165 -34 75 -67 124 -133 197 -29 32 -60 70 -69 85 -9 14 -28
39 -42 54 -14 15 -46 69 -71 120 -50 103 -29 87 -256 196 -27 13 -63 36 -79
50 -17 14 -56 35 -87 46 -57 19 -58 19 -95 -2 -56 -30 -182 -22 -273 19 -84
39 -164 47 -211 22 -34 -17 -52 -22 -179 -43 -36 -6 -80 -14 -98 -17 -24 -4
-37 -13 -45 -33 -12 -28 -65 -79 -104 -99 -12 -7 -42 -42 -67 -79 -25 -38 -67
-89 -93 -114 -79 -76 -112 -200 -77 -285 10 -25 19 -86 23 -169 6 -106 11
-138 30 -173 12 -25 24 -71 28 -109 5 -57 4 -68 -12 -79 -29 -22 -66 -16 -97
13 -29 27 -91 41 -112 24 -23 -19 -129 -32 -215 -27 -76 4 -96 8 -123 29 -29
21 -40 24 -91 20 -48 -5 -69 -1 -122 21 -67 29 -97 30 -198 7 -26 -6 -123 -13
-215 -14 -103 -2 -175 -8 -189 -15 -13 -7 -65 -12 -127 -12 -101 0 -105 -1
-125 -26 -12 -15 -21 -34 -21 -43 -1 -9 -9 -34 -20 -56 -11 -22 -19 -50 -20
-62 0 -12 -5 -25 -10 -28 -6 -4 -20 -25 -31 -47 -19 -38 -21 -54 -17 -249 3
-197 2 -209 -18 -235 -11 -15 -25 -29 -31 -31 -11 -4 -31 41 -31 72 0 11 -3
77 -7 146 -7 106 -5 133 9 170 13 33 16 69 14 149 l-3 105 -76 -3 c-70 -4 -81
-1 -147 32 l-72 36 -148 0 c-145 0 -150 -1 -188 -27 -41 -28 -120 -41 -169
-29 -14 4 -46 25 -71 48 -34 31 -49 39 -66 34 -183 -55 -357 -65 -413 -23 -23
17 -42 21 -83 19 -36 -1 -73 6 -118 23 -37 14 -79 25 -95 25 -29 0 -49 23 -49
56 0 18 79 156 92 162 5 2 8 11 8 20 0 10 6 29 14 44 27 52 39 134 34 235 -7
127 -46 234 -116 313 -46 53 -70 85 -103 139 -14 23 -21 26 -66 23 -82 -5
-229 47 -258 92 -25 37 -68 51 -107 35 -23 -10 -77 -14 -177 -14 l-143 0 -28
34 c-31 37 -25 36 -145 8 -95 -23 -173 -63 -234 -121 -63 -60 -89 -76 -123
-76 -33 0 -95 -45 -114 -83 -9 -18 -23 -39 -31 -47 -18 -19 -149 -202 -212
-297 -43 -64 -49 -78 -55 -146 -4 -41 -2 -136 5 -210 12 -149 7 -174 -47 -216
-38 -30 -68 -35 -118 -21 -35 9 -54 9 -93 0 -58 -15 -66 -15 -320 -8 -226 6
-253 13 -253 66 0 58 75 99 159 88 116 -15 151 -24 224 -60 l78 -39 27 20 c15
11 44 28 64 37 20 10 39 24 42 31 2 7 -11 44 -30 82 -45 90 -49 115 -35 249
10 100 15 119 42 159 17 25 34 45 38 45 9 0 104 173 122 223 7 20 17 37 21 37
4 0 8 6 8 14 0 8 19 31 42 50 52 45 97 48 126 11 11 -14 24 -25 29 -25 11 0
79 34 96 48 7 6 38 20 69 32 55 20 118 76 118 104 0 25 75 99 124 122 56 26
112 30 163 12 37 -13 59 -6 77 27 6 11 26 41 43 67 l33 48 -43 -5 c-265 -31
-280 -34 -308 -61 -16 -15 -29 -36 -31 -47 -4 -26 -95 -81 -168 -102 -14 -4
-34 -13 -45 -20 -11 -7 -49 -14 -85 -17 -41 -2 -82 -12 -111 -27 -50 -25 -191
-148 -211 -185 -7 -13 -43 -68 -80 -123 -106 -160 -145 -247 -178 -403 -4 -19
-16 -52 -26 -73 -17 -36 -21 -38 -54 -33 -19 3 -91 10 -160 15 -69 6 -137 16
-152 22 -18 7 -84 10 -190 8 -147 -4 -166 -6 -193 -26 -17 -12 -53 -23 -84
-27 -29 -3 -63 -12 -75 -19 -28 -18 -71 -28 -89 -21 -12 4 -13 13 -5 42 5 20
14 60 20 87 6 28 24 77 40 110 134 267 163 319 198 355 46 48 48 60 19 99 -20
27 -20 32 -8 118 14 101 10 129 -27 173 -61 72 -133 85 -314 55 -58 -9 -120
-16 -138 -16 -35 2 -102 -18 -102 -30 0 -17 -38 -18 -82 -2 -41 14 -55 15 -93
5 -25 -7 -84 -12 -131 -12 -81 0 -91 3 -170 42 -46 22 -98 57 -116 77 -28 31
-32 42 -33 91 0 56 1 58 74 144 40 48 81 90 90 93 9 3 23 12 31 18 8 7 33 16
55 20 34 6 97 33 187 81 15 8 48 13 77 12 57 -3 89 19 122 84 24 48 89 74 151
63 55 -11 227 -11 299 -1 46 7 68 5 120 -13 l64 -21 154 24 c151 24 192 38
212 77 4 7 19 39 34 69 15 30 33 62 41 71 8 9 14 38 14 70 0 65 21 113 84 193
25 32 46 69 46 81 0 30 33 70 83 102 33 21 60 27 137 34 105 8 263 39 297 57
27 15 78 15 160 1 75 -13 270 1 379 27 71 17 71 17 103 -5 30 -22 36 -22 97
-12 83 15 168 56 261 127 99 76 104 87 101 232 -3 115 -2 120 24 158 24 35 37
42 108 63 45 14 83 28 85 32 3 4 33 22 67 39 l63 33 120 -7 c345 -18 347 -18
410 -46 33 -15 67 -36 77 -46 9 -11 31 -62 48 -114 18 -52 37 -103 42 -114 7
-13 6 -49 -2 -110 -17 -118 -9 -131 109 -190 l86 -43 305 -12 c168 -7 312 -15
320 -18 8 -3 47 -7 85 -7 39 -1 106 -5 151 -10 80 -8 81 -8 101 18 25 31 44
33 68 6 24 -27 25 -127 2 -193 -23 -65 -22 -148 3 -197 23 -44 27 -95 16 -195
-7 -64 -6 -73 16 -105 29 -43 126 -104 191 -120 65 -17 190 -5 292 26 44 14
94 29 111 35 17 5 57 9 89 9 39 0 72 7 102 22 l43 22 28 -32 c17 -20 60 -45
117 -70 80 -34 115 -45 216 -66 31 -7 143 -132 166 -185 21 -48 10 -108 -27
-146 -15 -16 -39 -50 -51 -75 -27 -54 -35 -60 -74 -60 -20 0 -42 -12 -68 -35
-21 -19 -41 -35 -44 -35 -4 0 -16 -8 -27 -19 -52 -46 -539 -49 -650 -3 -61 25
-256 24 -311 -2 -57 -28 -133 -84 -147 -109 -14 -26 -44 -232 -54 -364 -6 -77
-4 -98 11 -129 16 -34 16 -46 6 -113 -15 -100 -15 -99 -13 -226 2 -89 6 -116
22 -142 25 -42 46 -34 60 21 14 53 29 85 54 114 11 12 23 46 28 75 4 28 15 88
24 132 10 48 18 146 20 245 6 239 24 275 134 272 26 -1 81 -16 130 -37 98 -41
116 -42 146 -14 21 20 27 21 66 10 60 -16 215 -31 331 -31 81 0 104 3 125 19
56 40 104 52 168 46 75 -8 85 -3 161 77 32 34 74 78 93 97 82 84 131 192 145
318 13 115 -36 269 -116 366 -81 98 -124 126 -241 158 -38 11 -101 35 -139 54
-65 33 -76 36 -177 38 -102 2 -110 4 -141 30 -61 51 -98 49 -180 -13 -36 -27
-63 -40 -85 -40 -17 0 -44 -9 -61 -20 -44 -29 -78 -26 -108 10 -25 29 -29 30
-103 30 -57 0 -82 -4 -95 -16 -41 -37 -63 42 -31 114 62 144 72 196 72 376 0
127 -1 133 -30 183 -36 62 -40 65 -110 74 -47 7 -60 14 -88 46 -68 78 -60 74
-132 67 -49 -4 -76 -2 -110 11 -83 31 -105 31 -131 -4 -31 -42 -84 -43 -165 0
-54 28 -68 31 -174 34 -81 2 -121 0 -135 -9 -11 -7 -46 -21 -77 -31 -83 -26
-88 -20 -88 117 0 77 6 138 21 200 18 75 19 94 9 114 -17 32 -77 78 -152 118
-90 47 -134 76 -183 119 -23 20 -51 37 -63 37 -11 0 -46 14 -77 30 -47 24 -68
30 -119 29 -33 -1 -77 -5 -96 -10z m-2921 -3614 c66 -21 84 -31 96 -54 13 -27
13 -30 -9 -52 -57 -57 -102 -79 -160 -79 -81 0 -112 27 -107 94 3 49 51 116
82 116 10 0 54 -11 98 -25z m4750 -974 c11 -7 16 -39 19 -123 3 -105 2 -116
-20 -158 -24 -44 -24 -47 -14 -172 7 -101 7 -130 -3 -142 -16 -19 -82 -21 -99
-4 -14 14 -16 63 -3 104 53 173 53 170 36 211 -33 78 10 294 59 293 6 0 17 -4
25 -9z"/>
<path d="M15078 22109 c-12 -6 -18 -22 -18 -43 0 -32 -1 -33 -50 -39 -51 -6
-107 -34 -93 -47 4 -4 54 -10 110 -12 90 -4 105 -3 119 13 12 14 14 22 6 32
-6 7 -12 33 -14 57 -2 36 -7 45 -23 47 -11 2 -28 -2 -37 -8z"/>
<path d="M10120 19165 c-14 -8 -36 -20 -50 -27 -14 -7 -31 -18 -38 -25 -7 -7
-20 -13 -28 -13 -8 0 -22 -4 -32 -10 -24 -14 -170 -70 -212 -82 -19 -6 -53
-24 -74 -41 -22 -17 -55 -40 -75 -50 -20 -11 -52 -32 -71 -46 -19 -15 -66 -46
-105 -69 -175 -103 -339 -289 -439 -497 -30 -60 -64 -131 -75 -157 -12 -26
-26 -50 -32 -53 -17 -11 -10 -195 10 -260 30 -96 42 -116 65 -113 20 3 21 12
28 135 6 126 8 136 46 220 21 48 45 104 53 123 27 72 381 400 584 542 81 56
356 158 429 158 16 0 43 9 60 19 41 26 204 29 341 8 55 -9 133 -20 173 -26 49
-8 85 -20 114 -38 133 -90 122 -85 185 -74 45 9 62 17 78 39 10 15 33 41 50
57 l31 30 -22 33 c-13 19 -20 41 -17 52 7 26 41 50 70 50 12 0 25 5 28 10 10
16 -55 38 -110 36 -35 -1 -77 8 -138 31 -78 29 -100 33 -188 33 -108 0 -268
-24 -311 -46 -15 -8 -40 -14 -55 -14 -15 0 -56 -9 -89 -21 -92 -33 -126 -15
-136 70 -4 31 -16 35 -48 16z"/>
<path d="M8934 17589 c-16 -17 -40 -36 -54 -43 -19 -9 -24 -19 -23 -41 3 -40
25 -55 69 -45 30 7 39 4 59 -16 14 -14 25 -30 25 -36 0 -20 71 -99 114 -126
49 -31 52 -32 93 -15 52 21 81 16 113 -18 l29 -32 77 7 c74 7 78 6 105 -20 28
-26 30 -27 116 -21 86 6 133 18 183 47 14 8 41 22 60 31 20 9 42 22 50 30 115
109 204 165 246 155 14 -4 32 -22 44 -47 25 -49 44 -57 80 -35 83 48 183 26
252 -57 43 -51 43 -51 43 -133 0 -45 3 -85 7 -89 9 -10 40 52 49 100 9 47 -5
95 -58 203 -54 110 -159 196 -259 212 -77 13 -196 13 -229 0 -14 -5 -58 -13
-97 -17 -65 -6 -71 -8 -91 -39 -24 -37 -46 -48 -127 -63 -79 -15 -306 -39
-440 -47 -108 -6 -119 -5 -160 16 -59 30 -90 55 -111 89 -16 27 -99 81 -123
81 -7 0 -25 -14 -42 -31z"/>
<path d="M20570 17574 c-139 -15 -193 -28 -388 -99 -78 -28 -136 -63 -177
-105 -22 -23 -63 -55 -92 -71 -28 -16 -90 -71 -138 -121 -90 -95 -125 -141
-125 -169 0 -8 -13 -42 -29 -75 -127 -263 -171 -376 -223 -574 -39 -149 -49
-339 -23 -470 9 -47 20 -106 25 -131 8 -45 23 -99 76 -279 38 -129 125 -339
179 -431 19 -33 35 -69 35 -79 0 -21 -5 -22 -140 -40 -41 -5 -118 -17 -170
-26 -97 -16 -322 -21 -373 -9 -57 15 -190 -46 -170 -78 4 -7 10 -46 13 -87 4
-59 8 -75 22 -78 9 -2 21 3 27 10 6 7 21 26 35 43 l24 30 81 -28 c100 -34 141
-34 178 -3 61 50 96 51 122 3 12 -22 19 -25 44 -20 17 4 43 12 57 20 36 19 73
16 88 -7 30 -49 130 -62 253 -34 140 32 206 140 169 276 -8 27 -31 56 -86 105
-119 107 -155 172 -119 219 8 10 15 35 15 56 0 29 -6 41 -35 65 -19 15 -68 61
-109 101 -61 60 -82 90 -124 175 -86 177 -84 169 -76 281 7 114 17 144 40 125
8 -6 14 -17 14 -25 0 -19 117 -271 148 -321 29 -44 57 -60 66 -36 3 8 6 39 6
69 0 52 -1 54 -37 71 -69 33 -113 170 -113 353 0 130 9 158 57 180 26 12 36
26 48 65 9 28 25 66 36 86 10 20 19 44 19 53 0 8 6 30 14 48 7 18 22 59 32 91
17 57 52 98 129 151 l27 18 -40 42 c-79 82 -95 157 -43 205 51 48 209 116 296
128 35 4 46 2 64 -16 12 -12 21 -34 21 -51 0 -29 2 -30 46 -30 39 0 58 8 121
50 71 48 78 50 143 50 65 0 71 2 128 45 56 42 109 64 189 79 22 4 45 -2 80
-20 26 -14 68 -29 93 -33 75 -14 360 -119 410 -151 8 -6 22 -13 30 -16 64 -25
92 -40 112 -61 32 -34 64 -46 124 -44 85 3 234 -66 350 -161 90 -75 124 -120
124 -167 0 -9 23 -45 50 -81 27 -36 60 -81 74 -100 13 -20 57 -72 98 -115 113
-120 188 -268 188 -371 0 -54 -10 -73 -52 -95 -22 -12 -23 -6 11 -174 11 -56
23 -169 27 -255 6 -139 9 -159 31 -197 31 -54 52 -56 55 -5 1 20 3 53 4 72 2
19 3 99 3 178 1 84 6 152 12 164 8 15 8 47 0 117 -12 100 -13 103 -57 241 -31
98 -175 385 -212 422 -7 7 -12 17 -12 23 0 6 -16 27 -36 46 -19 18 -50 61 -69
94 -19 33 -48 76 -66 95 -17 19 -69 76 -116 127 -46 50 -108 108 -138 127 -29
20 -63 50 -75 66 -12 16 -51 46 -88 67 -68 37 -83 48 -181 128 -33 27 -69 47
-90 51 -48 7 -224 70 -286 102 -72 37 -234 82 -355 98 -58 8 -116 18 -130 23
-27 8 -112 11 -170 5z"/>
<path d="M10400 17204 c0 -9 6 -22 14 -28 13 -10 13 -23 1 -101 -14 -91 -31
-145 -87 -288 -31 -79 -61 -113 -90 -102 -17 7 -26 -3 -59 -60 -12 -22 -27
-49 -33 -60 -7 -11 -22 -35 -33 -54 -12 -19 -27 -57 -34 -85 -14 -62 -65 -171
-118 -251 -22 -33 -40 -66 -40 -72 -1 -7 19 -18 44 -24 94 -24 146 -127 95
-192 -11 -14 -20 -29 -20 -33 0 -4 -10 -19 -23 -33 -13 -15 -44 -60 -69 -101
-26 -41 -58 -86 -72 -99 -24 -23 -28 -23 -65 -11 -22 7 -47 10 -55 7 -21 -8
-56 -66 -56 -92 0 -49 -35 -149 -92 -263 l-62 -122 13 -62 c7 -35 17 -71 23
-81 23 -44 93 -54 543 -77 94 -5 189 -12 212 -15 36 -6 45 -3 66 17 59 58 247
115 413 125 60 4 79 1 115 -18 37 -18 53 -21 114 -16 71 6 187 33 260 61 26
10 76 15 141 16 88 0 105 -3 128 -21 21 -17 26 -29 26 -65 0 -40 3 -45 34 -58
20 -8 45 -31 59 -53 30 -47 49 -64 63 -55 6 4 19 40 28 81 16 67 17 86 6 183
-12 99 -16 113 -52 168 -47 73 -63 70 -54 -9 4 -31 4 -70 0 -86 l-6 -30 -171
0 c-108 0 -200 -5 -247 -14 -43 -9 -153 -16 -260 -17 -102 -2 -294 -6 -427 -9
-215 -6 -247 -5 -287 10 -42 16 -63 16 -126 1 -14 -3 -63 -9 -110 -12 -77 -5
-89 -4 -130 18 -57 31 -64 67 -27 142 81 165 131 294 135 351 3 33 11 69 18
80 17 27 84 199 84 216 0 8 10 30 21 49 15 23 25 63 30 119 6 52 16 95 28 115
11 17 55 101 98 186 44 85 86 166 94 180 55 90 119 203 119 211 0 5 13 38 29
72 31 66 49 147 34 147 -6 0 -30 -29 -54 -64 -64 -93 -71 -81 -63 103 6 140 5
147 -15 169 -25 26 -51 29 -51 6z"/>
<path d="M17370 16808 c0 -18 -9 -46 -20 -63 -16 -24 -20 -47 -20 -117 0 -48
-7 -113 -15 -145 -16 -63 -20 -228 -6 -238 5 -3 12 -36 16 -73 4 -37 13 -92
21 -123 8 -31 14 -73 14 -92 0 -20 6 -64 14 -99 18 -78 31 -358 17 -377 -5 -8
-26 -17 -47 -20 -39 -6 -39 -7 -38 -51 1 -25 6 -76 12 -115 15 -91 15 -354 1
-409 -24 -96 53 -152 234 -168 62 -5 118 -15 126 -21 17 -14 528 -11 598 3
103 22 115 22 151 11 36 -12 42 -11 172 53 73 37 140 71 147 77 19 17 16 47
-6 59 -20 10 -176 -1 -250 -19 -55 -12 -323 -5 -446 12 -67 10 -185 16 -302
16 -105 1 -199 4 -208 7 -8 4 -22 19 -31 35 -12 24 -13 50 -5 156 6 71 10 227
10 348 0 175 4 231 17 275 12 41 18 121 24 315 4 143 13 278 19 300 23 86 8
184 -40 256 -13 20 -29 45 -36 55 -12 18 -13 18 -32 -3 -48 -56 -82 -2 -74
114 4 51 2 73 -6 73 -6 0 -11 -15 -11 -32z"/>
<path d="M11742 15973 c-16 -32 -33 -81 -37 -110 -4 -29 -13 -57 -20 -63 -39
-32 -60 -225 -25 -225 11 0 18 23 28 94 15 108 42 185 76 222 25 27 56 81 56
98 0 12 -28 41 -40 41 -4 0 -21 -26 -38 -57z"/>
<path d="M22610 15064 c-15 -38 -13 -50 22 -125 28 -62 35 -69 60 -69 51 0 59
62 12 100 -9 8 -27 38 -40 67 -25 59 -40 66 -54 27z"/>
<path d="M19880 12265 c-87 -16 -150 -47 -199 -100 -80 -86 -115 -193 -109
-339 2 -76 8 -101 32 -151 17 -33 35 -65 40 -71 78 -84 131 -134 142 -134 8 0
14 -4 14 -10 0 -5 5 -10 11 -10 7 0 21 -9 33 -20 12 -12 60 -50 108 -86 155
-115 202 -179 202 -274 -1 -84 -52 -159 -119 -175 -82 -19 -103 -17 -154 11
-61 32 -109 108 -118 185 -3 27 -11 53 -18 59 -14 12 -126 17 -143 6 -22 -13
-14 -89 16 -148 46 -89 89 -134 166 -175 l71 -38 135 0 c127 0 138 2 185 27
60 31 95 67 127 128 31 60 31 183 1 250 -25 55 -140 172 -225 231 -35 23 -79
53 -98 67 -78 52 -140 122 -181 202 -32 61 -34 71 -34 166 0 66 5 111 14 130
8 16 21 44 30 62 19 39 72 89 113 107 39 16 132 1 174 -27 74 -51 105 -129
108 -268 1 -58 5 -111 9 -117 8 -13 98 -26 131 -17 21 5 27 15 35 57 33 163 1
300 -88 380 -55 50 -104 73 -194 91 -87 18 -125 18 -217 1z"/>
<path d="M27791 12268 c-88 -11 -137 -34 -202 -95 -81 -76 -119 -182 -119
-334 0 -132 33 -201 147 -310 55 -53 177 -149 189 -149 9 0 95 -70 152 -124
69 -66 94 -114 93 -181 0 -64 -12 -96 -49 -135 -44 -46 -159 -79 -177 -50 -3
6 -14 10 -22 10 -54 0 -126 94 -139 182 -10 65 -26 78 -99 78 -33 0 -66 -5
-71 -10 -13 -13 2 -117 20 -140 7 -8 18 -28 26 -45 24 -47 84 -102 152 -137
62 -33 65 -33 198 -33 95 0 142 4 160 14 73 40 111 70 136 111 25 39 29 57 33
133 4 112 -14 162 -83 236 -50 53 -179 161 -192 161 -3 0 -21 12 -40 28 -18
15 -51 41 -73 57 -46 34 -110 113 -143 177 -19 35 -24 62 -26 150 -4 106 -4
107 32 171 35 62 73 104 114 126 26 14 102 14 137 1 44 -17 106 -73 122 -110
26 -60 43 -167 36 -235 l-6 -63 39 -11 c22 -6 56 -11 76 -11 61 0 73 28 72
174 0 137 -8 161 -74 244 -49 63 -114 98 -217 118 -82 15 -95 16 -202 2z"/>
<path d="M8080 12234 c-84 -5 -169 -33 -188 -62 -15 -24 -15 -74 4 -402 4 -58
1 -291 -6 -518 -11 -390 -11 -414 6 -433 21 -23 86 -26 107 -5 11 11 16 60 21
203 8 210 14 228 71 239 58 11 86 -9 117 -79 15 -34 32 -81 38 -103 17 -69 91
-258 103 -266 7 -4 42 -8 79 -8 98 0 118 28 68 100 -9 14 -28 48 -42 75 -14
28 -39 77 -56 110 -60 117 -83 184 -72 205 5 10 37 33 71 51 67 36 164 117
195 165 75 111 99 213 83 351 -18 164 -105 293 -234 346 -49 21 -82 26 -180
30 -66 2 -149 3 -185 1z m215 -131 c90 -40 146 -112 184 -234 33 -106 -9 -259
-100 -361 -28 -32 -57 -58 -65 -58 -8 0 -14 -3 -14 -8 0 -20 -139 -72 -193
-72 -20 0 -32 8 -47 32 -22 36 -22 0 6 433 l15 240 31 29 c29 26 36 28 87 23
31 -3 74 -13 96 -24z"/>
<path d="M16703 12226 c-96 -31 -150 -83 -206 -197 -53 -109 -68 -176 -80
-353 -14 -222 12 -514 53 -588 6 -10 10 -25 10 -33 0 -9 15 -48 34 -88 47 -97
138 -186 218 -212 54 -18 59 -18 120 -1 54 15 115 53 163 101 15 15 85 114 85
121 0 3 14 33 30 68 17 34 37 91 44 127 8 35 20 82 27 104 9 28 12 118 12 290
-1 226 -3 256 -22 314 -12 35 -21 71 -21 80 -1 27 -52 119 -95 171 -60 72
-128 103 -240 107 -57 2 -105 -2 -132 -11z m184 -121 c34 -21 50 -40 77 -93
60 -122 70 -186 70 -462 0 -297 -14 -382 -92 -561 -25 -58 -95 -119 -135 -119
-40 0 -103 52 -126 104 -34 73 -61 159 -61 192 0 17 -7 48 -15 67 -22 53 -22
505 0 591 45 174 76 235 143 281 47 32 84 32 139 0z"/>
<path d="M17830 12230 c-73 -9 -135 -30 -154 -51 -10 -11 -11 -90 -7 -374 3
-198 3 -499 -1 -670 -8 -347 -10 -335 63 -335 76 0 74 -5 84 254 4 88 11 168
16 178 12 22 50 32 87 23 29 -7 62 -32 62 -47 0 -6 23 -73 51 -150 28 -77 52
-145 53 -151 5 -27 34 -83 49 -96 12 -9 39 -12 96 -10 44 2 82 7 85 10 8 7
-13 69 -30 89 -6 8 -49 88 -93 177 -73 146 -80 165 -73 198 7 34 14 41 82 76
89 47 129 83 185 169 70 109 85 156 85 262 0 159 -48 280 -143 360 -80 67
-142 87 -300 92 -72 3 -161 1 -197 -4z m268 -136 c102 -53 164 -171 164 -312
0 -68 -5 -94 -28 -150 -36 -87 -101 -163 -176 -207 -65 -39 -172 -67 -205 -54
-32 12 -35 52 -19 215 8 82 18 221 21 309 7 165 19 218 55 229 38 12 138 -4
188 -30z"/>
<path d="M22140 12230 c-90 -6 -161 -27 -175 -50 -4 -6 -8 -311 -9 -678 -2
-574 0 -669 12 -684 19 -23 85 -24 102 -3 9 11 15 74 19 203 4 116 11 195 19
208 9 17 23 23 58 26 26 2 56 -1 68 -7 21 -11 62 -104 105 -240 23 -72 27 -82
57 -150 25 -56 40 -65 99 -59 86 9 95 12 95 37 0 13 -26 71 -58 128 -82 148
-142 274 -142 302 0 30 28 55 112 101 68 38 146 113 175 170 9 17 19 33 22 36
4 3 16 28 26 55 25 65 26 277 2 328 -9 18 -25 54 -36 80 -30 69 -84 122 -166
161 -63 30 -81 34 -180 38 -60 3 -153 2 -205 -2z m240 -135 c60 -30 115 -87
131 -135 6 -19 16 -41 22 -48 5 -7 12 -57 15 -111 4 -84 2 -104 -17 -145 -11
-27 -21 -52 -21 -57 0 -16 -61 -98 -93 -123 -74 -60 -104 -77 -161 -92 -65
-18 -106 -17 -131 1 -18 15 -19 22 -7 263 6 136 17 290 23 342 10 82 15 98 37
119 23 21 32 23 89 18 37 -4 82 -17 113 -32z"/>
<path d="M25430 12211 c-81 -26 -114 -46 -173 -104 -39 -40 -62 -75 -89 -138
-66 -156 -71 -182 -76 -428 -6 -291 11 -388 92 -549 30 -58 127 -152 181 -174
109 -43 205 -59 243 -39 9 5 42 19 72 31 65 25 92 47 143 116 41 58 62 109 70
172 6 53 -7 64 -69 60 -54 -3 -54 -4 -96 -112 -27 -69 -102 -142 -156 -152
-74 -14 -169 46 -211 132 -66 138 -83 213 -88 399 -8 298 33 484 133 595 146
162 348 65 384 -183 5 -32 14 -65 21 -73 17 -21 102 -19 122 4 21 23 21 42 2
140 -30 149 -89 236 -199 288 -65 31 -78 34 -161 33 -55 0 -111 -7 -145 -18z"/>
<path d="M31745 12206 c-97 -41 -135 -73 -212 -174 -33 -43 -79 -193 -97 -314
-40 -269 -2 -576 93 -741 53 -92 155 -169 244 -183 20 -4 40 -11 43 -15 8 -14
100 -10 136 5 18 8 52 22 75 31 111 46 246 272 196 327 -19 21 -95 25 -110 6
-5 -7 -22 -42 -36 -77 -53 -123 -110 -171 -204 -171 -59 0 -66 3 -104 37 -58
53 -88 103 -122 208 -27 84 -29 103 -34 295 -6 264 11 382 73 495 71 128 145
176 251 160 35 -5 55 -16 90 -51 52 -53 103 -159 103 -216 0 -63 13 -78 68
-78 77 1 85 14 77 112 -5 63 -15 101 -42 158 -42 94 -90 143 -172 181 -58 26
-73 29 -165 28 -79 -1 -112 -6 -151 -23z"/>
<path d="M2575 12204 c-45 -8 -87 -22 -97 -32 -15 -16 -17 -71 -19 -667 -1
-357 2 -658 5 -667 11 -24 27 -28 179 -44 120 -12 146 -12 208 1 97 21 144 43
205 98 40 36 55 59 69 103 39 124 -5 228 -132 310 -58 37 -68 65 -30 85 41 23
137 122 167 173 45 79 60 134 60 218 0 208 -84 350 -240 404 -94 33 -256 41
-375 18z m225 -105 c62 -13 144 -84 180 -155 68 -137 16 -372 -109 -494 -87
-85 -197 -128 -234 -91 -9 9 -13 92 -15 329 -2 174 -1 332 3 350 13 69 60 86
175 61z m101 -875 c112 -70 117 -209 12 -291 -48 -38 -93 -53 -155 -53 -64 0
-116 22 -128 55 -6 15 -10 78 -10 141 0 141 11 171 67 177 79 8 177 -5 214
-29z"/>
<path d="M9973 12206 c-51 -9 -80 -19 -98 -36 l-25 -23 0 -648 0 -648 22 -21
c26 -24 35 -26 138 -36 169 -16 248 -9 335 31 130 59 183 130 187 248 2 99
-39 169 -139 233 -79 52 -83 39 44 150 91 80 153 214 153 331 0 39 -4 75 -10
78 -5 3 -10 22 -10 40 0 90 -88 223 -176 265 -94 46 -271 61 -421 36z m228
-107 c40 -9 64 -22 102 -57 63 -60 90 -112 98 -187 18 -183 -55 -356 -194
-455 -30 -22 -76 -44 -102 -51 -45 -11 -49 -11 -67 11 -17 21 -18 47 -18 354
0 312 1 333 20 364 17 28 25 32 64 32 25 0 69 -5 97 -11z m105 -881 c53 -35
74 -76 74 -141 0 -92 -49 -153 -146 -182 -91 -28 -191 -13 -208 30 -3 9 -6 77
-6 151 0 132 1 135 26 161 25 25 28 26 120 19 82 -6 99 -10 140 -38z"/>
<path d="M15609 12203 c-18 -4 -29 -32 -29 -74 0 -34 34 -69 69 -69 16 0 36
-9 47 -21 18 -20 19 -42 17 -525 -2 -331 -6 -511 -13 -524 -6 -11 -23 -22 -38
-25 -59 -12 -77 -28 -80 -70 -4 -71 -6 -70 212 -70 107 0 197 3 201 7 4 4 9
26 12 50 7 64 -10 80 -83 82 -80 1 -82 5 -73 231 7 189 33 601 47 768 10 107
18 120 80 131 45 7 62 23 62 57 0 56 -12 59 -223 58 -106 -1 -199 -3 -208 -6z"/>
<path d="M24286 12188 c-37 -53 -9 -128 48 -128 20 0 40 -8 50 -19 16 -18 17
-56 14 -523 -2 -365 -6 -509 -15 -524 -6 -11 -31 -26 -55 -33 -51 -15 -58 -24
-58 -71 0 -65 1 -65 198 -68 206 -4 212 -2 212 72 0 53 -13 65 -80 73 -81 9
-83 15 -75 167 8 156 30 517 45 741 13 179 22 203 81 218 34 8 68 41 69 65 0
6 -9 21 -20 32 -19 19 -33 20 -209 20 -185 0 -190 -1 -205 -22z"/>
<path d="M12716 12178 c-14 -19 -16 -75 -16 -404 0 -374 0 -381 -21 -400 -18
-17 -40 -19 -170 -22 -148 -3 -149 -3 -175 23 -29 29 -28 -20 -2 525 14 301
17 290 -87 290 -66 0 -76 -2 -86 -22 -9 -17 -10 -179 -6 -668 4 -355 7 -646 7
-647 0 -2 11 -10 24 -18 30 -20 91 -11 102 13 5 10 11 85 14 168 7 204 -4 194
195 194 140 0 154 -2 180 -21 l27 -22 -4 -157 c-3 -179 0 -190 63 -190 59 0
65 13 73 152 20 377 38 674 51 833 21 258 23 358 6 378 -10 13 -31 17 -87 17
-64 0 -75 -3 -88 -22z"/>
<path d="M29490 12193 c-14 -3 -28 -10 -33 -17 -11 -16 -6 -1337 6 -1360 8
-17 24 -18 284 -14 274 3 275 3 294 27 10 13 19 37 19 55 0 61 -1 61 -215 64
l-196 3 -20 32 c-19 30 -20 43 -15 192 7 194 23 533 37 788 12 232 11 238 -79
236 -31 -1 -68 -4 -82 -6z"/>
<path d="M30498 12193 c-36 -9 -40 -50 -29 -299 6 -132 11 -426 11 -655 0
-368 2 -418 16 -430 17 -14 285 -15 467 -3 83 6 89 8 102 35 12 23 13 34 2 66
l-12 38 -192 5 c-178 5 -194 7 -213 26 -21 20 -21 24 -10 320 11 321 27 659
37 789 7 105 -1 115 -95 114 -37 -1 -74 -3 -84 -6z"/>
<path d="M4692 12170 c-17 -28 -15 -75 4 -91 11 -9 52 -16 108 -19 84 -5 91
-7 103 -30 10 -19 13 -158 13 -601 0 -444 3 -579 13 -592 21 -28 62 -32 86 -8
21 21 21 26 21 604 0 511 2 585 16 605 14 21 22 22 135 22 106 0 121 2 139 20
22 22 27 79 8 98 -9 9 -94 12 -323 12 -299 0 -311 -1 -323 -20z"/>
<path d="M5692 12178 c-7 -7 -12 -31 -12 -55 0 -37 4 -45 26 -53 14 -6 58 -10
98 -10 58 0 76 -4 89 -18 15 -17 17 -73 17 -605 0 -574 0 -587 20 -607 25 -25
62 -26 83 -2 15 17 17 73 17 603 0 489 2 588 14 605 13 17 31 20 146 24 143 5
150 8 150 67 0 67 20 63 -324 63 -229 0 -315 -3 -324 -12z"/>
<path d="M13579 12168 c-26 -29 -39 -61 -39 -100 0 -17 -6 -54 -14 -82 -8 -28
-20 -78 -26 -111 -6 -33 -17 -96 -25 -140 -8 -44 -24 -125 -36 -180 -11 -55
-25 -120 -29 -145 -4 -25 -14 -72 -22 -105 -9 -33 -21 -91 -28 -130 -15 -88
-37 -189 -61 -280 -22 -82 -17 -91 52 -101 81 -11 105 21 129 170 15 92 13 91
211 91 169 0 170 0 189 -25 10 -13 20 -40 23 -60 10 -80 31 -156 45 -167 21
-17 122 -16 145 1 18 14 15 50 -18 176 -7 30 -21 87 -30 125 -9 39 -21 88 -27
110 -6 22 -15 58 -19 80 -5 22 -15 69 -24 105 -9 36 -25 108 -36 160 -12 52
-30 133 -40 180 -11 47 -24 114 -29 150 -4 36 -13 78 -19 93 -6 16 -11 39 -11
52 0 33 -29 116 -48 138 -12 14 -32 17 -103 17 -78 0 -91 -2 -110 -22z m144
-305 c3 -10 15 -63 26 -118 12 -55 29 -128 37 -162 7 -34 14 -73 14 -87 0 -14
6 -50 14 -80 8 -30 18 -90 21 -133 7 -78 7 -79 -19 -91 -27 -12 -203 -17 -242
-6 -37 10 -43 41 -29 135 17 106 34 195 45 234 5 17 14 61 20 99 6 38 14 74
17 80 4 6 10 34 14 64 10 70 33 106 59 92 10 -5 21 -18 23 -27z"/>
<path d="M14428 12165 c-9 -21 -8 -40 5 -93 9 -37 23 -103 32 -147 9 -44 21
-98 27 -120 6 -22 17 -74 25 -115 8 -41 20 -104 28 -140 7 -36 19 -96 25 -135
7 -38 18 -88 26 -110 8 -23 14 -52 14 -65 0 -14 6 -54 14 -90 8 -36 20 -92 26
-125 31 -163 38 -189 56 -202 12 -9 51 -13 120 -13 l103 0 20 55 c12 31 21 73
21 95 0 21 4 41 9 45 6 3 13 27 16 53 3 26 14 83 24 127 11 44 26 116 36 160
9 44 28 127 42 185 38 157 70 291 97 410 8 36 19 76 24 90 17 46 24 131 11
146 -7 9 -32 14 -69 14 -92 0 -98 -11 -136 -215 -8 -44 -17 -96 -20 -115 -5
-36 -33 -171 -59 -291 -8 -37 -15 -77 -15 -90 0 -12 -6 -48 -14 -78 -24 -99
-45 -195 -52 -239 -8 -52 -33 -70 -62 -44 -20 17 -33 66 -52 197 -5 33 -16 78
-24 100 -8 22 -15 54 -16 71 0 17 -7 53 -15 80 -8 27 -15 64 -15 82 0 18 -5
42 -10 53 -6 11 -15 56 -20 100 -5 45 -14 86 -19 93 -5 6 -12 40 -16 76 -3 36
-14 96 -24 135 -17 69 -18 70 -57 77 -74 13 -94 10 -106 -17z"/>
<path d="M23128 12179 c-21 -12 -34 -74 -20 -92 5 -6 13 -32 16 -57 7 -43 23
-115 67 -295 11 -44 19 -90 19 -103 0 -13 6 -44 14 -70 13 -43 67 -302 86
-412 5 -25 16 -83 25 -130 10 -47 21 -105 25 -129 11 -68 34 -81 144 -81 50 0
96 4 102 8 16 11 24 36 56 187 67 320 76 362 87 410 7 28 16 68 21 90 5 22 30
123 55 225 25 102 52 217 61 255 8 39 21 92 27 118 16 68 5 81 -67 85 -82 4
-99 -9 -115 -94 -7 -38 -16 -89 -21 -114 -5 -25 -16 -85 -25 -135 -9 -49 -23
-119 -31 -155 -21 -99 -63 -306 -78 -390 -20 -107 -35 -162 -52 -187 -15 -23
-38 -30 -48 -14 -5 8 -54 232 -82 376 -7 39 -20 99 -27 135 -8 36 -20 99 -27
140 -7 41 -18 100 -26 130 -7 30 -18 87 -24 125 -15 106 -31 154 -54 170 -23
17 -83 19 -108 4z"/>
<path d="M3663 12170 c-17 -7 -23 -18 -23 -42 -1 -18 0 -316 0 -662 1 -581 2
-630 18 -642 13 -10 87 -13 318 -14 256 0 303 2 314 15 16 19 15 95 -2 111 -9
9 -76 13 -235 16 -198 4 -225 7 -243 23 -18 17 -20 30 -20 165 0 115 3 150 14
159 9 8 79 14 193 18 199 6 223 13 223 63 0 17 -9 39 -20 50 -18 18 -33 20
-190 20 -168 0 -171 0 -195 25 l-25 24 0 256 0 256 25 24 24 25 230 0 c198 0
232 2 246 16 19 20 12 72 -13 92 -19 14 -603 16 -639 2z"/>
<path d="M6805 12171 c-23 -5 -31 -13 -36 -36 -4 -17 -7 -312 -8 -657 -1 -615
-1 -628 19 -648 19 -19 33 -20 323 -20 222 0 306 3 315 12 13 13 16 96 4 115
-5 7 -77 12 -234 15 -287 4 -267 -10 -270 179 -2 115 0 140 15 163 l17 26 184
0 c206 0 212 2 208 68 -5 61 -7 62 -199 62 -172 0 -174 0 -199 25 l-25 25 3
261 c3 260 3 261 27 280 21 17 42 19 255 19 167 0 235 3 244 12 17 17 15 74
-4 92 -13 14 -55 16 -312 15 -163 -1 -310 -4 -327 -8z"/>
<path d="M11085 12173 c-11 -3 -28 -12 -37 -20 -16 -14 -17 -64 -18 -657 0
-522 2 -645 13 -660 20 -28 75 -32 370 -26 292 5 287 4 287 65 0 17 -3 40 -6
53 -6 22 -7 22 -213 22 -228 0 -277 8 -291 46 -6 14 -10 81 -10 149 0 175 -11
166 216 172 98 3 187 9 197 15 19 10 24 67 7 99 -10 18 -23 19 -188 19 -97 0
-182 4 -188 8 -30 20 -34 55 -34 304 0 139 4 258 8 264 19 30 55 34 276 34
247 0 256 2 256 60 0 58 -13 60 -335 59 -159 -1 -299 -4 -310 -6z"/>
<path d="M20860 12167 l-25 -13 -3 -659 c-2 -612 -1 -661 15 -672 13 -10 94
-13 325 -13 294 0 308 1 318 19 14 27 13 94 -2 109 -8 8 -67 12 -197 13 -195
0 -274 8 -294 28 -8 8 -12 57 -12 156 0 125 2 147 18 162 15 16 41 18 200 21
106 2 187 8 194 14 7 6 13 30 13 53 0 23 -6 47 -13 53 -7 6 -89 12 -195 14
-168 3 -185 5 -198 22 -11 16 -14 72 -14 283 0 250 1 264 20 283 19 19 33 20
253 20 168 0 236 3 245 12 20 20 15 86 -7 98 -30 16 -609 13 -641 -3z"/>
<path d="M26420 12167 l-25 -13 -3 -652 c-2 -641 -2 -652 18 -672 19 -19 33
-20 323 -20 222 0 306 3 315 12 7 7 12 33 12 58 0 25 -5 51 -12 58 -9 9 -73
12 -225 12 -231 0 -264 6 -277 52 -3 13 -6 78 -6 144 0 176 -10 168 222 172
105 2 188 8 196 14 6 6 12 30 12 53 0 23 -6 47 -12 53 -8 6 -91 12 -195 14
-132 2 -186 7 -195 16 -10 10 -13 76 -13 288 0 261 1 276 19 290 16 11 67 14
252 14 255 0 264 2 264 60 0 60 -1 60 -338 60 -227 0 -313 -4 -332 -13z"/>
<path d="M8375 8648 c-52 -28 -105 -109 -105 -159 0 -29 49 -79 78 -79 14 0
34 -8 44 -17 22 -20 81 -27 75 -10 -2 7 -14 11 -26 9 -33 -3 -109 55 -116 89
-9 38 2 84 23 101 41 32 83 48 130 48 51 0 75 13 46 24 -26 10 -128 6 -149 -6z"/>
<path d="M21695 8650 c-40 -16 -115 -121 -115 -158 1 -9 11 -29 23 -43 28 -34
140 -84 164 -74 14 6 8 11 -27 23 -63 21 -91 43 -105 83 -10 29 -9 39 8 70 29
55 85 82 158 77 38 -3 58 -1 56 6 -7 22 -120 34 -162 16z"/>
<path d="M7133 8609 c-38 -24 -35 -12 -38 -159 -1 -63 -6 -134 -10 -158 -6
-34 -4 -47 10 -62 18 -20 18 -20 41 3 39 39 53 47 77 47 14 0 30 7 37 15 7 8
20 15 29 15 9 0 29 20 44 45 21 33 27 54 25 82 l-4 38 -14 -49 c-8 -27 -20
-51 -27 -53 -7 -3 -13 -11 -13 -19 0 -8 -5 -14 -11 -14 -6 0 -22 -9 -36 -20
-14 -11 -36 -20 -49 -20 -13 0 -24 -5 -24 -11 0 -17 -31 11 -40 37 -5 12 -5
67 -1 122 7 87 11 104 32 126 37 39 84 35 126 -10 l33 -37 0 31 c0 67 -114 98
-187 51z"/>
<path d="M16558 8606 c-38 -23 -40 -36 -8 -36 41 0 44 -21 41 -273 -2 -225 -3
-244 -22 -270 -26 -36 -18 -47 39 -47 67 0 83 14 43 34 l-31 17 0 98 c0 95 1
100 29 130 24 26 36 31 73 31 54 -1 129 -20 153 -40 14 -12 16 -24 11 -73 -5
-47 -13 -67 -42 -103 -34 -41 -34 -43 -10 -31 56 30 80 64 84 126 4 59 -8 101
-31 101 -7 0 -20 14 -29 31 -14 24 -16 35 -7 51 10 19 9 20 -17 15 -16 -2 -59
-13 -95 -24 -79 -23 -115 -16 -124 27 -8 37 3 207 15 230 20 37 -18 40 -72 6z"/>
<path d="M17470 8582 c-19 -26 -37 -49 -40 -52 -3 -3 -28 -33 -54 -67 -27 -35
-55 -63 -62 -63 -21 0 -48 31 -73 83 -13 26 -27 49 -32 53 -5 3 -9 14 -9 24 0
23 -38 46 -52 32 -6 -6 2 -28 21 -61 17 -29 31 -56 31 -61 0 -4 6 -21 14 -37
41 -83 54 -157 55 -318 1 -91 6 -164 12 -170 20 -20 28 22 23 125 -5 82 -3
115 10 150 9 25 16 56 16 70 1 31 33 105 52 116 8 5 35 36 60 69 25 33 55 70
67 82 12 12 21 26 21 32 0 5 6 12 13 14 9 4 8 8 -3 16 -24 17 -33 13 -70 -37z"/>
<path d="M19041 8562 c-19 -28 -21 -42 -21 -297 -1 -147 1 -269 4 -272 2 -3 9
-2 15 2 7 4 11 76 11 208 0 167 3 206 16 225 8 12 21 22 27 22 13 0 57 -76 57
-97 0 -7 9 -22 20 -33 11 -11 20 -27 20 -35 0 -8 5 -15 10 -15 12 0 13 47 1
54 -13 9 -65 123 -80 178 -7 26 -23 56 -36 68 l-23 21 -21 -29z"/>
<path d="M18759 8548 c0 -13 -1 -76 0 -141 0 -69 -3 -116 -8 -112 -11 6 -17
-11 -26 -80 -4 -27 -13 -58 -21 -69 -8 -11 -14 -26 -14 -33 0 -23 -46 -82 -73
-94 -38 -16 -81 -2 -85 29 -2 12 -7 22 -12 22 -5 0 -11 8 -15 19 -3 10 -14 29
-25 41 -11 13 -20 36 -20 52 0 16 -7 39 -15 51 -11 18 -14 52 -13 153 2 108 0
129 -12 129 -12 0 -16 -23 -18 -130 -2 -117 -1 -132 18 -157 11 -15 20 -43 20
-62 0 -19 4 -37 9 -40 5 -3 12 -21 15 -39 4 -20 22 -49 47 -73 36 -35 45 -39
89 -38 42 0 53 5 72 29 49 62 73 116 92 200 20 94 40 307 32 339 -8 32 -36 35
-37 4z"/>
<path d="M31267 8453 c-8 -12 -27 -135 -27 -175 0 -26 2 -28 45 -28 35 0 51
-5 66 -22 82 -92 130 -154 135 -174 4 -13 12 -24 20 -24 19 0 17 13 -6 43 -11
14 -20 28 -20 32 0 4 -12 22 -27 41 -16 18 -36 43 -45 56 -10 13 -27 35 -38
50 -27 35 -14 64 46 100 53 32 59 53 9 32 -71 -29 -120 -13 -140 47 -6 18 -14
28 -18 22z"/>
<path d="M20997 8424 c-4 -10 -11 -66 -17 -124 -6 -58 -14 -132 -18 -165 -8
-64 -3 -105 13 -108 6 -1 11 39 13 100 2 95 4 104 26 118 19 13 28 13 50 4 14
-7 26 -17 26 -23 0 -6 13 -22 28 -36 38 -33 102 -114 102 -128 0 -6 10 -18 22
-26 43 -30 37 -3 -14 65 -29 38 -72 94 -95 125 -24 31 -43 60 -43 63 0 13 41
51 55 51 19 0 75 49 75 66 0 19 -4 18 -50 -12 -53 -35 -103 -29 -141 18 -24
29 -27 30 -32 12z"/>
<path d="M2510 8400 c-44 -37 -85 -38 -134 -5 l-37 25 -10 -28 c-15 -38 -24
-252 -10 -232 6 8 11 25 11 37 0 40 11 53 45 53 25 0 39 -7 54 -27 12 -16 31
-39 42 -53 11 -14 41 -51 66 -82 43 -55 63 -70 63 -48 0 5 -12 24 -27 42 -16
18 -32 40 -38 49 -25 40 -52 76 -77 104 -42 45 -32 105 17 105 25 0 85 55 85
78 0 18 -12 14 -50 -18z"/>
<path d="M20387 8393 c-4 -3 -7 -71 -7 -150 0 -102 -4 -154 -14 -178 -20 -48
-11 -75 25 -75 16 0 38 9 49 20 l21 21 -28 23 c-27 24 -28 27 -27 124 2 146
13 158 162 172 l77 7 -60 4 c-33 2 -73 4 -90 4 -16 1 -44 9 -62 18 -36 19 -37
19 -46 10z"/>
<path d="M27766 8382 c-3 -6 -8 -77 -10 -159 -2 -88 -8 -158 -15 -171 -17 -32
2 -62 39 -62 16 0 32 5 35 11 4 6 16 14 27 18 18 6 17 8 -9 21 -15 8 -31 19
-35 25 -4 5 -8 57 -8 115 0 97 2 107 24 127 34 32 68 43 144 44 80 2 67 6 -53
18 -49 5 -100 12 -111 16 -12 4 -24 2 -28 -3z"/>
<path d="M27185 8359 c-4 -6 -7 -74 -6 -150 1 -128 -1 -142 -20 -169 -30 -39
-19 -60 30 -60 50 0 58 12 32 49 -34 48 -22 210 19 243 38 31 173 15 218 -25
42 -38 44 -9 2 36 -18 19 -30 43 -30 60 0 22 -5 27 -23 27 -13 0 -27 -4 -32
-9 -10 -8 -107 -41 -123 -41 -5 0 -21 11 -35 25 -17 18 -27 22 -32 14z"/>
<path d="M6133 8269 c-10 -10 -9 -15 3 -23 16 -12 33 -76 31 -116 -2 -20 -15
-31 -69 -58 -65 -32 -71 -33 -146 -27 -83 8 -122 29 -151 83 -12 23 -31 22
-31 -3 0 -23 45 -68 71 -70 13 -1 22 -5 21 -10 -8 -19 38 -28 133 -26 l100 2
43 45 c43 45 43 46 45 127 2 75 0 82 -18 85 -11 1 -26 -3 -32 -9z"/>
<path d="M14987 8269 c-18 -10 -18 -11 0 -24 14 -10 18 -25 16 -64 -3 -60 -7
-69 -50 -106 -31 -25 -39 -27 -128 -26 -52 0 -95 -4 -95 -9 0 -21 41 -29 124
-25 72 4 92 9 116 27 16 13 29 29 29 36 1 6 6 12 11 12 6 0 10 6 10 13 0 6 6
24 14 39 8 14 17 45 21 68 6 34 4 44 -12 55 -22 17 -32 18 -56 4z"/>
</g>
</svg>
